<?xml version="1.0" encoding="UTF-8"?>
<svg width="500px" height="500px" viewBox="0 0 500 500" version="1.1" xmlns="http://www.w3.org/2000/svg" xmlns:xlink="http://www.w3.org/1999/xlink">
    <!-- Generator: Sketch 43.2 (39069) - http://www.bohemiancoding.com/sketch -->
    <title>Icon</title>
    <desc>Created with Sketch.</desc>
    <defs>
        <linearGradient x1="16.8764316%" y1="57.6527417%" x2="83.987753%" y2="57.6527417%" id="linearGradient-1">
            <stop stop-color="#FFFFFF" stop-opacity="0.85" offset="0%"></stop>
            <stop stop-color="#FFFFFF" offset="100%"></stop>
        </linearGradient>
    </defs>
    <g id="Page-1" stroke="none" stroke-width="1" fill="none" fill-rule="evenodd">
        <g id="Icon">
            <g id="Group" transform="translate(15.000000, 17.000000)">
                <g id="Eponyms" transform="translate(0.000000, 84.000000)" fill="url(#linearGradient-1)" opacity="0.887681159">
                    <g id="Page-White" transform="translate(14.000000, 0.000000)">
                        <path d="M1.50444241e-14,237.125716 C81.8367975,214.344322 140.745874,225.723844 213.243822,262 L214,36.6239218 C156.832372,-0.507438048 103.782794,-12.711423 40.8339126,15.5184698 L0,237.125716 L1.50444241e-14,237.125716 Z" id="page-left"></path>
                        <path d="M213,262 C271.27738,231.630276 344.997621,210.20562 429,234.095652 L388.358884,15.3858852 C327.712121,-14.3212252 270.432019,6.57624988 213.752607,36.50269 L213,262 Z" id="page-right"></path>
                    </g>
                </g>
                <g id="Snake2" transform="translate(133.000000, 0.000000)">
                    <path d="M107.346515,420 C129.439908,358.219403 56.7619367,385.205042 56.7619367,340.498211 C56.7619367,295.791379 156.914153,312.511726 156.914153,264.721371 C156.914153,216.931016 38,233.53419 38,182.406028 C38,131.277867 176,157.24922 176,99.4278145 C176,41.6064088 125.570477,46.0803483 125.570477,46.0803483" id="Body" stroke="#000000" stroke-width="33" stroke-linecap="round"></path>
                    <path d="M86.733718,36.5369434 C50.5162482,54.0001497 52.4862376,56.7922237 63.1601091,70.2346299 C71.6186999,79.6082836 98.1405738,86.4236812 146.336057,68.1419156 L147.378752,36.344556 C122.072553,28.2090762 106.674909,26.5480484 86.733718,36.5369434 Z" id="Head" fill="#000000" transform="translate(102.019559, 54.781906) rotate(-6.000000) translate(-102.019559, -54.781906) "></path>
                </g>
            </g>
        </g>
    </g>
</svg>